<?xml version="1.0" encoding="utf-8"?>
<!-- Generator: Adobe Illustrator 16.0.0, SVG Export Plug-In . SVG Version: 6.00 Build 0)  -->
<!DOCTYPE svg PUBLIC "-//W3C//DTD SVG 1.1//EN" "http://www.w3.org/Graphics/SVG/1.1/DTD/svg11.dtd">
<svg version="1.1" xmlns="http://www.w3.org/2000/svg" xmlns:xlink="http://www.w3.org/1999/xlink" x="0px" y="0px"
	 width="440.979px" height="429.9px" viewBox="0 0 440.979 429.9" enable-background="new 0 0 440.979 429.9" xml:space="preserve">
<g id="BACKGROUND" display="none">
	<rect x="-29.602" y="-70.1" display="inline" fill="#B8D0F2" width="500" height="500"/>
</g>
<g id="OBJECTS">
	<g display="none">
		<polygon display="inline" fill="#5353C6" points="430.898,280.65 -2.102,318.404 -2.102,317.404 430.898,279.65 		"/>
	</g>
	<linearGradient id="SVGID_1_" gradientUnits="userSpaceOnUse" x1="149.8984" y1="355.4033" x2="299.8984" y2="355.4033">
		<stop  offset="0" style="stop-color:#5353C6"/>
		<stop  offset="1" style="stop-color:#5353C6;stop-opacity:0.0293"/>
	</linearGradient>
	<ellipse opacity="0.3" fill="url(#SVGID_1_)" cx="224.898" cy="355.403" rx="75" ry="11.5"/>
	<linearGradient id="SVGID_2_" gradientUnits="userSpaceOnUse" x1="37.8984" y1="350.8135" x2="98.8203" y2="350.8135">
		<stop  offset="0" style="stop-color:#5353C6"/>
		<stop  offset="1" style="stop-color:#5353C6;stop-opacity:0.0293"/>
	</linearGradient>
	<ellipse opacity="0.3" fill="url(#SVGID_2_)" cx="68.359" cy="350.813" rx="30.461" ry="4.09"/>
	<linearGradient id="SVGID_3_" gradientUnits="userSpaceOnUse" x1="281.8984" y1="350.4033" x2="431.8984" y2="350.4033">
		<stop  offset="0" style="stop-color:#5353C6"/>
		<stop  offset="1" style="stop-color:#5353C6;stop-opacity:0.0293"/>
	</linearGradient>
	<ellipse opacity="0.3" fill="url(#SVGID_3_)" cx="356.898" cy="350.403" rx="75" ry="11.5"/>
	<polygon fill="#ACEDFC" points="237.316,272.101 55.042,286.903 55.042,57.903 237.316,72.706 	"/>
	<path opacity="0.3" fill="#A9C0E8" d="M111.857,115.29c0.817,6.983,6.627,12.741,6.945,19.765
		c0.379,8.386-6.938,14.831-13.399,20.19c-6.365,5.281-12.704,11.042-16.106,18.58c-3.402,7.538-3.145,17.313,2.703,23.161
		c6.951,6.953,18.781,6.114,26.626,12.039c5.985,4.521,8.583,12.105,12.582,18.451c8.588,13.632,25.005,21.919,41.073,20.734
		c4.435-0.326,9.256-1.604,11.737-5.293c2.994-4.453,1.365-10.551-1.315-15.199c-2.681-4.648-6.364-8.895-7.532-14.131
		c-2.48-11.124,7.097-21.111,16.431-27.65s20.254-13.379,22.448-24.563c2.336-11.916-6.564-23.131-16.268-30.431
		c-5.771-4.342-12.322-8.336-15.465-14.838c-2.578-5.334-2.445-11.591-4.488-17.152c-2.828-7.696-10.061-13.592-18.174-14.812
		c-14.907-2.237-17.583,9.881-28.3,15.074C123.439,103.05,110.172,100.893,111.857,115.29z"/>
	<g>
		<path fill="#F9CCDA" d="M265.316,344.526c-0.131,2.116-0.32,4.386-1.665,6.024c-1.586,1.932-4.294,2.423-6.768,2.786
			c-3.604,0.529-7.207,1.059-10.811,1.588c-0.184,0.533,0.439,0.979,0.974,1.161c2.664,0.902,5.566,0.508,8.364,0.217
			c3.242-0.337,6.5-0.523,9.76-0.557c1.45-0.015,3.171-0.145,3.907-1.394c0.55-0.933,0.299-2.104,0.17-3.178
			c-0.393-3.275,0.528-6.612,0.06-9.877c-0.054-0.376-0.175-0.812-0.53-0.946c-0.182-0.069-0.383-0.04-0.572-0.002
			C265.448,340.907,265.469,342.05,265.316,344.526z"/>
		<path fill="#5353C6" d="M266.301,353.014c-2.686,1.64-5.414,2.084-8.537,1.695c-0.19-0.024-1.238-0.254-1.43-0.275
			c-0.11-0.599-0.05-1.186-0.541-1.166c-2.258,0.087-4.512,0.275-6.753,0.564c-0.712,0.092-3.414,0.155-3.699,0.709
			c-0.255,0.494-0.092,1.124,0.268,1.548c0.358,0.423,0.877,0.677,1.396,0.874c2.56,0.976,5.387,0.86,8.123,0.731
			c3.364-0.159,6.729-0.317,10.094-0.477c1.148-0.054,2.357-0.127,3.321-0.752c1.419-0.92,1.907-2.775,1.94-4.466
			C270.545,348.925,267.271,352.421,266.301,353.014z"/>
		<path fill="#F9CCDA" d="M250.241,197.461c0,0,12.224-0.711,12.199-1.017c-0.283-3.561-3.501-8.838-1.83-11.996
			c1.67-3.157,2.948-4.944,4.637-8.092c0.249-0.465,0.468-1.101,0.088-1.467c-0.313-0.301-0.82-0.201-1.235-0.078
			c-2.235,0.664-4.439,1.431-6.604,2.298c-3.665,1.468-7.131,1.431-7.255,5.306C250.104,186.675,250.241,197.461,250.241,197.461z"
			/>
		<path fill="#F9CCDA" d="M212.603,350.177c-0.408,2.08-0.893,4.306-2.442,5.753c-1.826,1.706-4.576,1.837-7.075,1.872
			c-3.642,0.051-7.284,0.102-10.926,0.153c-0.252,0.504,0.306,1.029,0.813,1.278c2.522,1.245,5.451,1.236,8.263,1.315
			c3.258,0.092,6.513,0.336,9.748,0.73c1.44,0.177,3.163,0.274,4.058-0.868c0.667-0.852,0.572-2.046,0.585-3.128
			c0.042-3.298,1.394-6.484,1.358-9.782c-0.004-0.381-0.067-0.828-0.402-1.009c-0.17-0.092-0.375-0.09-0.567-0.076
			C213.209,346.605,213.08,347.741,212.603,350.177z"/>
		<path fill="#D37897" d="M272.605,250.018c0,0-2.439,17.994-3.354,31.718s3.659,43.306,3.354,51.235s-2.135,12.504-2.135,12.504
			h-7.015c0,0-8.539-36.901-8.844-44.831s-5.489-48.491-5.489-48.491L272.605,250.018z"/>
		<linearGradient id="SVGID_4_" gradientUnits="userSpaceOnUse" x1="261.5234" y1="304.5762" x2="261.5234" y2="264.7117">
			<stop  offset="0" style="stop-color:#D37897;stop-opacity:0"/>
			<stop  offset="0.8988" style="stop-color:#BC547C"/>
		</linearGradient>
		<path fill="url(#SVGID_4_)" d="M272.605,250.018l-13.376,1.217c-4.095,2.637-7.157,6.813-8.788,11.429
			c1.329,10.745,3.277,26.923,3.947,34.751c0.613,0.072,1.23,0.114,1.842,0.092c3.516-0.131,6.85-1.614,9.851-3.451
			c1.108-0.679,2.174-1.423,3.212-2.203c-0.184-3.821-0.229-7.305-0.042-10.116C270.166,268.012,272.605,250.018,272.605,250.018z"
			/>
		<path fill="#5353C6" d="M179.148,184.112c0.085,0.813-1.085,1.041-1.304,0.252c-2.934-10.593-9.717-37.435-9.622-41.126
			c0.06-2.329,1.724-4.021,1.724-4.021h2.106c0,0,1.724,1.724,1.915,4.021C174.102,144.84,178.031,173.487,179.148,184.112z"/>
		<path fill="#F9CCDA" d="M251.511,157.2c-1.369,2.568-3.06,5.529-5.944,5.911c-0.461,0.061-0.953,0.055-1.351,0.296
			c-0.74,0.448-0.795,1.481-0.764,2.345c0.119,3.292,0.239,6.584,0.358,9.876c0.108,3.009,0.497,6.521,3.072,8.082
			c1.847,1.119,4.191,0.801,6.312,0.394c1.697-0.326,3.399-0.69,4.99-1.364c4.95-2.098,8.257-7.003,9.792-12.156
			c1.209-4.058,1.449-8.583-0.35-12.416C264.13,150.717,255.37,149.963,251.511,157.2z"/>
		<path fill="#E28DA5" d="M269.244,249.203c-1.366,0.197-2.725,0.439-4.078,0.709c-0.239-0.177-0.563-0.252-0.863-0.31
			c-9.421-1.779-19.164-1.289-28.131,2.105c-4.631,14.113-17.035,65.052-19.624,71.918c-3.06,8.116-5.01,16.602-6.951,25.056
			c3.033,0.667,5.676,1.204,8.779,1.316c10.835-25.632,15.476-24.318,17.073-41.391c0.324-3.465,4.886-9.308,6.895-12.147
			c9.521-13.461,25.699-32.279,28.212-36.266C272.799,256.633,277.267,248.044,269.244,249.203z"/>
		<linearGradient id="SVGID_5_" gradientUnits="userSpaceOnUse" x1="253.9746" y1="267.0322" x2="253.9746" y2="246.1276">
			<stop  offset="0" style="stop-color:#D37897;stop-opacity:0"/>
			<stop  offset="0.8988" style="stop-color:#BC547C"/>
		</linearGradient>
		<path fill="url(#SVGID_5_)" d="M269.244,249.203c-1.366,0.197-2.725,0.439-4.078,0.709c-0.239-0.177-0.563-0.252-0.863-0.31
			c-9.421-1.779-19.164-1.289-28.131,2.105c-0.576,1.757-1.273,4.085-2.057,6.826c3.09,1.856,8.136,3.64,16.326,4.129
			c8.561,0.512,16.29-2.666,22.18-6.279C274.315,252.617,275.041,248.366,269.244,249.203z"/>
		<path fill="#F9CCDA" d="M179.715,160.925c-0.161-0.617-0.375-1.27-0.884-1.653c-0.651-0.491-1.581-0.38-2.337-0.073
			c-0.755,0.307-1.443,0.786-2.232,0.993c-1.417,0.374-3.098-0.133-4.271,0.746c-0.684,0.512-1.01,1.457-0.788,2.282
			c0.115,0.427,0.358,0.807,0.538,1.21c0.612,1.378,0.501,3.058,1.393,4.274c0.677,0.924,1.798,1.39,2.861,1.814
			c2.579,1.027,5.157,2.055,7.735,3.082c0.166,0.066,0.356,0.132,0.516,0.053c0.135-0.066,0.205-0.216,0.261-0.355
			c1.08-2.686,0.617-3.985-0.736-6.16C180.596,165.252,180.265,163.039,179.715,160.925z"/>
		<g>
			
				<ellipse transform="matrix(0.9558 0.2941 -0.2941 0.9558 58.4169 -65.7135)" fill="#FFFFFF" cx="247.67" cy="161.348" rx="1.961" ry="6.636"/>
			<path fill="#3535A5" d="M245.9,167.968c-0.087,0-0.172-0.013-0.255-0.039c-0.625-0.192-0.947-1.059-0.931-2.507
				c0.015-1.33,0.313-3.008,0.842-4.725c0.528-1.716,1.225-3.272,1.96-4.38c0.8-1.206,1.552-1.743,2.179-1.55
				c0.625,0.192,0.946,1.059,0.931,2.507c-0.015,1.331-0.313,3.009-0.842,4.726c-0.528,1.716-1.225,3.271-1.96,4.38
				C247.13,167.425,246.471,167.968,245.9,167.968z M249.447,155.23c-0.313,0-0.844,0.353-1.514,1.363
				c-0.71,1.069-1.384,2.579-1.898,4.251c-0.515,1.672-0.807,3.3-0.82,4.583c-0.016,1.356,0.288,1.935,0.577,2.024
				c0.296,0.09,0.866-0.219,1.615-1.349c0.71-1.069,1.384-2.579,1.898-4.251c0.515-1.671,0.806-3.299,0.82-4.583
				c0.015-1.356-0.288-1.935-0.577-2.023C249.518,155.235,249.484,155.23,249.447,155.23z"/>
		</g>
		<path fill="#5353C6" d="M212.463,358.719c-2.877,1.273-5.641,1.354-8.685,0.559c-0.186-0.049-1.195-0.415-1.381-0.46
			c-0.031-0.608,0.106-1.183-0.384-1.229c-2.25-0.21-4.508-0.319-6.768-0.327c-0.717-0.002-3.405-0.295-3.761,0.217
			c-0.317,0.456-0.238,1.102,0.062,1.569c0.3,0.467,0.78,0.786,1.269,1.05c2.409,1.304,5.227,1.561,7.957,1.793
			c3.356,0.285,6.713,0.569,10.069,0.854c1.145,0.097,2.353,0.184,3.391-0.31c1.527-0.725,2.255-2.5,2.511-4.172
			C217.208,355.224,213.502,358.26,212.463,358.719z"/>
		<path fill="#5353C6" d="M276.462,198.43c-3.556-3.173-7.595-6.537-12.359-6.468c-1.589,0.023-25.907-5.442-28.731-5.662
			c-18.87-1.468-34.254-16.547-53.021-19.005c-1.864,0.595-2.48,3.121-1.719,4.923s2.44,3.022,4.056,4.126
			c16.885,11.534,33.268,22.582,51.626,31.587c-4.229,10.938,5.984,16.66,5.264,19.372c-0.771,2.901-7.703,22.033-6.943,24.938
			c6.842,2.104,12.292,2.386,19.425,2.979c7.134,0.593,14.773-0.693,20.824-4.519c-0.664-3.541-3.838-6.809-1.411-8.115
			c6.947-4.418,13.691-7.75,18.276-14.588c0.884-1.319,1.677-2.749,1.915-4.319C294.32,219.352,281.529,202.954,276.462,198.43z
			 M272.361,234.891c0.892-3.988,5.383-15.894,5.383-15.894c2.054,1.068,4.358,5.127,4.358,5.127S274.376,233.546,272.361,234.891z"
			/>
		<path fill="#FFFFFF" d="M172.331,139.126c-1.347,0.736-3.072,0.411-4.124-0.707c-0.609-0.647-1.048-1.53-0.632-2.6
			c0.925-2.379,2.644-5.155,1.851-6.741c-0.793-1.586-0.793-1.454-0.793-1.586c0-0.132,4.373,2.459,5.023,4.626
			C174.977,136.526,173.725,138.364,172.331,139.126z"/>
		<path fill="#F9CCDA" d="M177.992,153.999c-0.19-0.481-0.451-1.005-0.942-1.169c-0.588-0.197-1.234,0.255-1.474,0.827
			c-0.24,0.571-0.182,1.219-0.119,1.835c0.173,1.708,0.347,3.417,0.521,5.126c0.099,0.972,0.315,2.115,1.206,2.517
			c0.664,0.299,1.494,0.014,1.954-0.551c0.884-1.087,0.298-2.357,0.121-3.565C179.005,157.295,178.634,155.625,177.992,153.999z"/>
		<path fill="#5353C6" d="M174.099,134.154c-0.087-0.616-0.215-1.274-0.444-2.036c-0.65-2.167-5.023-4.758-5.023-4.626
			c0,0.044,0.003,0.063,0.033,0.123c0.01,0.02,0.021,0.041,0.032,0.062c0.083,0.153,0.272,0.491,0.728,1.401
			c0.755,1.51-0.76,4.095-1.706,6.393c0.277,0.149,0.579,0.198,0.886,0.063c0.641-0.281,0.987-1.239,1.681-1.141
			c0.978,0.138,0.602,1.991,1.522,2.351c0.569,0.223,1.145-0.344,1.375-0.911s0.333-1.231,0.805-1.621
			C174.021,134.184,174.062,134.174,174.099,134.154z"/>
		<g>
			<line fill="#FFFFFF" x1="248.722" y1="162.664" x2="253.481" y2="165.408"/>
			
				<rect x="248.354" y="163.786" transform="matrix(0.8663 0.4995 -0.4995 0.8663 115.5148 -103.501)" fill="#3535A5" width="5.494" height="0.501"/>
		</g>
		<path fill="#D3805F" d="M276.657,157.473c-2.526-2.538-5.808-4.177-9.124-5.527c-2.571-1.046-5.271-1.958-8.048-1.902
			c-2.775,0.057-5.663,1.242-7.133,3.597c-1.121,1.797-1.295,4.059-0.909,6.142c0.252,1.355,0.845,4.3,1.893,5.304
			c0.882,0.846,2.285,0.269,3.031,1.509c0.515,0.855,0.452,1.944,0.191,2.908c-0.271,0.999-0.769,1.981-1.61,2.582
			c-0.236,0.168-0.503,0.299-0.783,0.386c-1.356,0.421-2.247,1.704-2.052,3.11c0.305,2.192,1.117,4.315,2.376,6.136
			c0.298,0.432,0.631,0.844,1.002,1.212c-0.088,0.627-0.255,1.261-0.342,1.888c-0.259,1.863,0.536,4.102,2.353,4.591
			c-0.646-0.719-1.28-1.551-1.313-2.517s0.843-1.997,1.778-1.754c0.748,0.195,1.117,1.041,1.235,1.805
			c0.269,1.751-0.262,3.609-1.415,4.954c1.228-0.69,2.492-1.414,3.325-2.549c0.897-1.222,1.203-2.805,2.127-4.006
			c0.198-0.258,0.426-0.489,0.662-0.711c0.106,0.146,0.217,0.29,0.317,0.438c0.741,1.081,0.813,1.796,0.235,3.532
			c-0.098,0.291-0.7,1.303-0.7,1.303c0.13-0.117,3.164-2.396,1.055-5.929c0.52-0.095,1.035-0.206,1.539-0.364
			c3.773-1.192,6.519-4.376,9.054-7.415c2.242-2.688,4.578-5.582,5.02-9.055C280.872,163.587,279.183,160.011,276.657,157.473z"/>
		<path fill="#3535A5" d="M276.462,198.43c-2.099-1.873-4.367-3.807-6.853-5.067c1.026,1.869,2.607,3.696,3.1,5.813
			c0.429,1.84,0.471,3.745,0.512,5.634c0.087,4.034,0.173,8.068,0.26,12.102c0.06,2.736,0.091,5.601-1.145,8.043
			c-1.368,2.706-4.068,4.453-6.731,5.906c-0.588,0.32-1.209,0.66-1.548,1.237c-0.698,1.188,0.149,2.722,1.234,3.571
			c1.084,0.85,2.437,1.393,3.283,2.479c0.041,5.142,0.082,10.282,0.123,15.424c2.174-0.724,4.265-1.655,6.186-2.869
			c-0.664-3.541-3.838-6.809-1.411-8.115c6.947-4.418,13.691-7.75,18.276-14.588c0.884-1.319,1.677-2.749,1.915-4.319
			C294.32,219.352,281.529,202.954,276.462,198.43z M272.361,234.891c0.892-3.988,5.383-15.894,5.383-15.894
			c2.054,1.068,4.358,5.127,4.358,5.127S274.376,233.546,272.361,234.891z"/>
		<path fill="#5353C6" d="M279.094,210.257c0.396,0.384-1.466,7.472-1.579,8.458c-0.036,0.32-0.05,0.672-0.054,1.039
			c0.179-0.479,0.283-0.757,0.283-0.757c2.054,1.068,4.358,5.127,4.358,5.127s-7.727,9.422-9.741,10.767
			c0.009-0.039,0.021-0.085,0.029-0.126c-0.237,0.421-0.475,0.842-0.713,1.263c-0.429,0.759-0.581,2.097,0.289,2.152
			c0.318,0.021,0.6-0.189,0.849-0.388c1.886-1.507,3.772-3.014,5.658-4.52c1.004-0.802,2.012-1.606,2.88-2.553
			c1.193-1.3,2.097-2.835,2.99-4.356c0.726-1.236,1.451-2.472,2.177-3.707c0.343-0.584,0.697-1.218,0.634-1.892
			c-0.046-0.499-0.317-0.944-0.588-1.366C284.437,216.078,281.924,213.005,279.094,210.257z"/>
		<path fill="#3535A5" d="M242.109,205.514c2.24-1.309,4.612-2.758,5.694-5.115c0.535-1.167,0.771-2.568,1.783-3.357
			c2.219,2.783,3.983,5.929,5.2,9.274c0.473,1.297,0.867,2.689,0.605,4.045c-0.262,1.356-1.372,2.64-2.753,2.656
			c-0.652,0.008-1.274-0.257-1.872-0.52c-3.281-1.442-9.149-3.092-11.457-5.781C240.267,206.426,241.229,206.028,242.109,205.514z"
			/>
		<path fill="#3535A5" d="M247.055,227.803c-1.669-0.835-4.079-2.224-6.039-2.325c0.453,0.721,0.695,1.325,0.562,1.826
			c-0.403,1.519-2.493,7.48-4.286,13.236c1.423-0.034,2.811-0.579,4.138-1.133c2.987-1.246,6.104-2.721,7.856-5.442
			c0.737-1.146,1.188-2.625,0.63-3.868C249.402,228.955,248.195,228.317,247.055,227.803z"/>
		<path fill="#3535A5" d="M245.804,202c-1.318-0.558-2.804-0.483-4.235-0.479c-6.853,0.021-13.702-1.829-19.612-5.297
			c-3.721-2.185-7.097-5.003-11.087-6.645c-3.25-1.336-6.82-1.852-9.938-3.472c-2.615-1.358-4.778-3.425-7.077-5.269
			c-1.533-1.229-8.53-6.777-12.068-6.858c0.826,0.913,1.875,1.662,2.9,2.363c16.885,11.534,33.268,22.582,51.626,31.587
			c-0.265,0.685-0.473,1.348-0.63,1.992c0.258-0.023,0.515-0.038,0.772-0.087c1.969-0.369,3.74-1.464,5.702-1.863
			c2.17-0.442,5.104-0.467,5.679-2.605C248.208,203.985,247.122,202.558,245.804,202z"/>
		<path fill="#B2664F" d="M274.618,155.719c-4.042,0.13-7.371,2.319-7.107,7.813c0.069,1.437,0.541,2.826,0.69,4.257
			c0.602,5.772-3.92,10.617-6.628,15.751c-0.884,1.675-1.527,3.9-0.275,5.321c0.021,0.022,0.048,0.036,0.069,0.059
			c0.696-1.15,1.05-2.51,1.872-3.58c0.198-0.258,0.426-0.489,0.662-0.711c0.106,0.146,0.217,0.29,0.317,0.438
			c0.741,1.081,0.813,1.796,0.235,3.532c-0.098,0.291-0.7,1.303-0.7,1.303c0.13-0.117,3.164-2.396,1.055-5.929
			c0.52-0.095,1.035-0.206,1.539-0.364c3.773-1.192,6.519-4.376,9.054-7.415c2.242-2.688,4.578-5.582,5.02-9.055
			c0.451-3.552-1.238-7.129-3.764-9.667C276.021,156.834,275.338,156.253,274.618,155.719z"/>
		<circle fill="#D3805F" cx="278.482" cy="162.313" r="9.914"/>
		<linearGradient id="SVGID_6_" gradientUnits="userSpaceOnUse" x1="214.6924" y1="324.0586" x2="241.1465" y2="324.0586">
			<stop  offset="0" style="stop-color:#D37897;stop-opacity:0"/>
			<stop  offset="0.8988" style="stop-color:#BC547C"/>
		</linearGradient>
		<path fill="url(#SVGID_6_)" d="M218.375,349.998c10.835-25.632,15.476-24.318,17.073-41.391c0.27-2.885,3.473-7.411,5.698-10.487
			c-0.349,0.161-0.705,0.34-1.075,0.553c-6.427,3.693-10.748,10.464-13.462,17.183c-3.548,8.782-5.137,18.319-9.354,26.8
			c-1.087,2.187-2.342,4.65-2.563,6.991C215.883,349.818,217.087,349.951,218.375,349.998z"/>
	</g>
	<g>
		<path fill="#D37897" d="M342.744,182.835c0,0-6.13,1.065-22.122,21.056c-6.93,14.659-7.196,21.322-7.196,21.322
			s0.267,3.198,4.798,1.065c4.531-2.132,19.724-23.188,19.724-23.188L342.744,182.835z"/>
		<path fill="#E28DA5" d="M335.762,186.368c-3.37,4.004-5.908,35.959-3.065,37.373c6.137,3.054,13.307,2.944,20.159,2.77
			c1.863-0.048,3.774-0.105,5.5-0.81c2.075-0.848,3.697-2.575,4.812-4.52c2.051-3.579,2.519-7.939,1.741-11.99
			c-0.778-4.051-2.735-7.81-5.227-11.097c-2.396-3.16-5.335-5.993-6.943-9.619c-1.586-3.573-1.504-8.413-6.334-8.039
			C342.244,180.759,338.402,183.233,335.762,186.368z"/>
		<path fill="#5353C6" d="M318.28,344.219l-3.322,6.663L296.156,340.8c0,0,0-2.452,3.815-1.362
			c3.814,1.09,13.079,6.268,13.079,6.268l2.18-4.088L318.28,344.219z"/>
		<path fill="#5353C6" d="M369.912,346.122l0.236,7.558l-7.287,6.559c-2.244,2.02-5.303,2.989-8.264,2.4
			c-1.104-0.22-1.839-0.62-1.482-1.332c1.017-2.034,11.694-8.136,11.694-8.136l0.509-9.661L369.912,346.122z"/>
		<path fill="#D6A659" d="M334.433,232.5c-5.891,20.685-10.609,41.703-14.126,62.922c-2.635,15.897-3.672,32.221-9.487,47.25
			c2.56,0.979,4.569,1.472,7.461,2c3.259-5.528,6.128-9.91,8.801-15.745c1.664-3.632,3.223-7.355,3.938-11.285
			c1.131-6.225,0.122-12.829,2.258-18.784c7.055-19.666,15.936-37.834,21.683-57.922c0.215-0.751,0.424-1.571,0.126-2.293
			c-0.423-1.023-1.651-1.402-2.732-1.646C346.232,235.615,340.677,233.121,334.433,232.5z"/>
		<path fill="#EABD70" d="M366.544,225.426c1.501,40.78,3.002,81.561,4.503,122.34c-2.882,0-6.662,0.018-9.545,0.018
			c-2.621-8.874-4.215-17.792-4.754-27.029c-1.64-28.112-6.509-56.035-14.48-83.044c3.441-3.596,6.296-6.348,10.406-9.154
			C356.785,225.75,361.646,224.534,366.544,225.426z"/>
		<path fill="#E28DA5" d="M310.494,210.82c-1.246,3.316-2.972,6.414-2.405,9.911c0.565,3.498,3.736,6.843,7.228,6.24
			c2.892-0.498,4.24-7.356,4.24-7.356l6.93-29.851l-5.755-0.941C320.731,188.823,312.46,205.59,310.494,210.82z"/>
		<path fill="#E28DA5" d="M332.764,231.977c0,0-0.375,3.569,0.275,5.198c1.302,3.263,8.704,5.085,8.704,5.085
			s25.968-0.84,26.357-3.153c0.793-4.712-0.454-9.221-0.452-13.999c0-0.521-0.02-1.086-0.345-1.493
			c-0.271-0.341-0.704-0.503-1.116-0.643c-6.684-2.274-13.901-2.917-20.89-1.955c-2.701,0.372-7.736,0.813-9.964,2.527
			C332.687,225.58,332.764,231.977,332.764,231.977z"/>
		<path fill="#F9CCDA" d="M313.082,217.146c-0.24-0.124-0.532-0.24-0.768-0.109c-0.166,0.092-0.249,0.279-0.347,0.442
			c-1.06,1.767-4.283,1.059-5.261,2.872c-0.401,0.743-0.238,1.69,0.207,2.408c0.444,0.717,1.132,1.247,1.82,1.734
			c1.771,1.253,6.061,1.263,6.061,1.263l5.509,0.942l-0.03-2.327l-2.798-1.68c0,0,0.493-1.462,0.286-1.701
			C316.237,219.235,314.228,217.738,313.082,217.146z"/>
		<linearGradient id="SVGID_7_" gradientUnits="userSpaceOnUse" x1="350.5859" y1="244.0098" x2="350.5859" y2="218.3818">
			<stop  offset="0" style="stop-color:#D37897;stop-opacity:0"/>
			<stop  offset="0.8988" style="stop-color:#BC547C"/>
		</linearGradient>
		<path fill="url(#SVGID_7_)" d="M333.033,228.678c-0.124,0.773-0.191,1.488-0.227,2.058c2.176,2.049,6.571,5.259,13.043,5.611
			c5.448,0.298,13.88,2.284,20.205,3.783c1.217-0.304,1.981-0.644,2.046-1.023c0.792-4.712-0.454-9.221-0.452-13.999
			c0-0.283-0.011-0.577-0.068-0.854c-4.512-0.322-8.845-0.619-8.845-0.619L333.033,228.678z"/>
		<path fill="#F9CCDA" d="M313.349,217.047c-0.245-0.216-0.502-0.427-0.808-0.542c-0.359-0.136-0.755-0.126-1.139-0.112
			c-0.537,0.021-1.073,0.048-1.608,0.082c-0.252,0.016-0.554,0.066-0.653,0.298c-0.107,0.25,0.102,0.521,0.315,0.688
			c0.662,0.517,1.515,0.738,2.183,1.245c0.67,0.508,1.122,1.274,1.833,1.723c0.206,0.13,0.44,0.232,0.684,0.224
			c0.24-0.009,0.462-0.124,0.675-0.236c0.934-0.496,0.876-0.788,0.235-1.577C314.549,218.2,313.98,217.573,313.349,217.047z"/>
		<path fill="#E28DA5" d="M341.557,182.678l14.614-2.476l8.147,1.543c6.343,1.202,10.96,6.688,11.086,13.142
			c0.206,10.596-0.18,26.035-3.656,33.748c-1.566,3.476-7.072,2.934-10.885,2.928c-11.187-0.015-33.348-0.28-43.652-4.634
			c0.185-1.64,0.027-3.018,0.718-4.517c9.892-1.626,30.756-4.815,40.626-3.063c-7.944-8.921-13.569-20.113-15.82-31.845
			C342.412,185.82,341.557,182.678,341.557,182.678z"/>
		<linearGradient id="SVGID_8_" gradientUnits="userSpaceOnUse" x1="350.4443" y1="187.5986" x2="375.4063" y2="187.5986">
			<stop  offset="0" style="stop-color:#D37897;stop-opacity:0"/>
			<stop  offset="0.8988" style="stop-color:#BC547C"/>
		</linearGradient>
		<path fill="url(#SVGID_8_)" d="M375.406,194.996c-0.001-0.035-0.001-0.074-0.002-0.109c-0.126-6.454-4.743-11.939-11.086-13.142
			l-8.147-1.543l-2.281,0.386l-3.445,10.846c0.586,0,14.644-2.343,24.016,3.075C374.796,194.703,375.107,194.86,375.406,194.996z"/>
		<path fill="#FFFFFF" d="M345.399,182.984c-0.215,0.405-0.27,0.873-0.304,1.329c-0.188,2.448,0.07,4.93,0.758,7.286
			c0.092,0.313,0.193,0.63,0.391,0.89c0.637,0.834,1.923,0.72,2.913,0.373c1.489-0.521,2.84-1.367,4.165-2.224
			c2.511-1.624,5.09-3.431,6.403-6.116c0.205-0.419,0.379-0.877,0.324-1.34c-0.124-1.042-1.284-1.593-2.301-1.852
			C355.175,180.674,346.96,180.045,345.399,182.984z"/>
		<path fill="#F9CCDA" d="M356.53,183.695c-3.352,2.575-8.113,5.003-8.113,5.003l-2.696-12.569c0,0-4.865,0.699-6.175,0.521
			c-5.054-0.685-10.033-4.136-11.061-9.131c-0.639-3.102,0.277-6.289,1.186-9.323c1.867-6.237,3.804-12.617,7.699-17.834
			c1.301-1.741,3.316-2.414,5.489-2.452c2.932-0.05,5.908,0.165,8.679,1.124c2.771,0.959,5.339,2.723,6.841,5.241
			c1.748,2.935,1.892,6.57,1.396,9.95s-1.571,6.652-2.098,10.028c-0.167,1.07-1.802,3.585-2.033,6.046
			C355.171,175.355,356.138,181.507,356.53,183.695z"/>
		<path fill="#5353C6" d="M352.348,163.757c0.586,2.636,2.805,6.019,3.522,6.432c0.008-0.992,1.651-4.937,1.808-5.936
			c0.526-3.375,1.603-6.648,2.098-10.028c0.494-3.38,0.352-7.015-1.396-9.95c-1.502-2.519-4.069-4.282-6.841-5.241
			c-2.771-0.959-5.747-1.174-8.679-1.124c-0.909,0.016-1.787,0.151-2.602,0.422c2.596,3.188,11.225,5.602,12.191,4.027
			C348.002,149.597,350.505,155.464,352.348,163.757z"/>
		<path fill="#F9CCDA" d="M354.278,154.127c1.83-0.255,3.927,0.11,5.034,1.588c1.262,1.684,0.755,4.121-0.285,5.95
			c-0.82,1.441-1.968,2.741-3.452,3.477c-2.021,1.001-4.577,0.814-6.43-0.47C343.043,160.44,349.179,154.838,354.278,154.127z"/>
		<path fill="#5353C6" d="M323.665,173.585c0.491,4.192,2.836,7.617,6.977,8.437c3.185,0.631,7.061,1.007,10.108-0.113
			c10.787-3.962,6.193-14.025,7.189-16.665c1.27-3.365,2.547-6.76,3.091-10.315c-2.015-0.497-3.749,1.401-4.958,3.088
			c-1.208,1.687-4.184,5.769-6.198,5.274c-1.491-3.089-4.171-6.132-7.569-6.601c-1.303-0.18-3.188-0.634-3.785,0.537
			C324.979,164.166,323.245,169.995,323.665,173.585z"/>
		<path fill="#F9CCDA" d="M325.942,189.71c0.106,0.103,0.212,0.206,0.317,0.309c1.422-2.521,2.697-5.123,3.819-7.791
			c0.289-0.688,0.574-1.416,0.495-2.159c-0.101-0.939-0.758-1.71-1.385-2.417c-0.721-0.812-1.47-1.914-2.19-2.726
			c0.659-1.194,1.319-2.389,1.979-3.584c0.269-0.486,0.541-0.985,0.62-1.535c0.078-0.549-0.078-1.168-0.528-1.493
			s-1.005-0.334-1.34,0.109c-1.552,2.052-7.021,17.746-6.833,19.763c0.114,1.225,0.322,2.614,1.344,3.298
			C323.479,192.313,325.07,190.919,325.942,189.71z"/>
		
			<ellipse transform="matrix(0.9505 0.3106 -0.3106 0.9505 63.0239 -95.4594)" fill="#FFFFFF" cx="331.235" cy="150.153" rx="3.004" ry="6.378"/>
		
			<ellipse transform="matrix(0.9505 0.3106 -0.3106 0.9505 64.0169 -98.1886)" fill="#FFFFFF" cx="340.316" cy="151.916" rx="5.693" ry="6.986"/>
		<linearGradient id="SVGID_9_" gradientUnits="userSpaceOnUse" x1="354.6914" y1="225.5166" x2="354.6914" y2="189.4621">
			<stop  offset="0" style="stop-color:#D37897;stop-opacity:0"/>
			<stop  offset="0.8988" style="stop-color:#BC547C"/>
		</linearGradient>
		<path fill="url(#SVGID_9_)" d="M363.478,196.853l-4.979,15.669c0,0-8.054,7.175-12.594,7.468
			c0.293,0.293,15.229-0.439,15.229-0.439L363.478,196.853z"/>
		<linearGradient id="SVGID_10_" gradientUnits="userSpaceOnUse" x1="351.3223" y1="160.3037" x2="356.7305" y2="160.3037">
			<stop  offset="0" style="stop-color:#D37897;stop-opacity:0"/>
			<stop  offset="0.8988" style="stop-color:#BC547C"/>
		</linearGradient>
		<path opacity="0.4" fill="url(#SVGID_10_)" d="M351.322,159.803c0,0,2.49-3.222,4.687-1.904s-1.318,4.979-1.318,4.979
			l-3.368,0.146V159.803z"/>
		<path fill="#5353C6" d="M336.795,157.846c0.406,0.303,0.855,0.548,1.352,0.71c2.988,0.977,6.383-1.205,7.581-4.872
			c0.877-2.685,0.33-5.417-1.196-7.074L336.795,157.846z"/>
		<path fill="#FFFFFF" d="M334.091,151.086c0.809-2.475,0.804-4.828,0.11-6.097l-4.946,11.226
			C330.832,156.73,332.997,154.434,334.091,151.086z"/>
	</g>
	<path fill="#ACEDFC" d="M368.898,89.578c0-9.918-8.307-17.897-18.343-17.358c-8.877,0.476-16.089,7.825-16.414,16.708
		c-0.177,4.846,1.636,9.26,4.681,12.509c2.508,2.676,4.628,5.69,6.048,9.072l0.934,2.223v3.296h4.54h2.341h4.54v-3.296l0.622-1.481
		c1.563-3.724,3.875-7.056,6.581-10.054C367.205,98.119,368.898,94.049,368.898,89.578z"/>
	<rect x="345.387" y="112.845" fill="#5353C6" width="12.254" height="8.558"/>
	<g>
		<polygon fill="#5353C6" points="353.619,116.722 350.14,116.722 343.833,87.316 345.192,87.025 351.263,115.333 352.464,115.333 
			357.834,86.459 359.199,86.713 		"/>
	</g>
	<circle fill="#5353C6" cx="351.514" cy="121.598" r="2.723"/>
	<g>
		<g>
			<g>
				<rect x="351.119" y="51.493" fill="#F4F4F4" width="1" height="14.232"/>
			</g>
		</g>
		<g>
			<g>
				<rect x="372.29" y="85.896" fill="#F4F4F4" width="14.232" height="1"/>
			</g>
			<g>
				<rect x="316.716" y="85.896" fill="#F4F4F4" width="14.232" height="1"/>
			</g>
		</g>
		<g>
			<g>
				
					<rect x="323.588" y="67.602" transform="matrix(0.7527 0.6584 -0.6584 0.7527 126.6172 -200.8807)" fill="#F4F4F4" width="14.233" height="1"/>
			</g>
		</g>
		<g>
			<g>
				
					<rect x="369.413" y="58.364" transform="matrix(0.7525 0.6586 -0.6586 0.7525 134.698 -227.431)" fill="#F4F4F4" width="0.999" height="14.233"/>
			</g>
		</g>
	</g>
	<polygon fill="#E28DA5" points="257.898,91.392 226.898,89.903 226.898,40.903 257.898,43.415 	"/>
	<polygon fill="#E28DA5" points="65.689,172.392 43.898,171.346 43.898,136.902 65.689,138.667 	"/>
	<polygon fill="#5353C6" points="71.392,191.393 53.898,190.552 53.898,162.902 71.392,164.319 	"/>
	<polygon fill="#EABD70" points="216.542,89.225 189.232,90.237 189.232,55.903 216.542,56.916 	"/>
	<polygon fill="#EABD70" points="133.554,296.059 106.243,297.07 106.243,262.737 133.554,263.749 	"/>
	<g>
		<path fill="#92BC6A" d="M65.112,279.966c-0.67-3.281-1.344-6.63-0.95-9.956c0.508-4.289,2.751-8.173,5.253-11.693
			c1.517-2.135,4.028-4.433,6.397-3.315c0.929,0.438,1.559,1.324,2.062,2.219c3.584,6.369,2.626,14.188,2.182,21.481
			c-0.305,5.013-0.335,10.14-2.011,14.873c-0.561,1.584-1.329,3.142-2.561,4.284c-1.232,1.144-2.998,1.812-4.627,1.401
			c-3.679-0.926-4.584-5.945-4.665-9.128C66.103,286.576,65.838,283.521,65.112,279.966z"/>
		<path fill="#3535A5" d="M75.915,316.195c1.973,0.567,4.08,1.398,5.021,3.144c-1.233,1.833-2.667,3.544-4.27,5.097
			c-2.376,2.301-5.493,4.356-8.864,4.022c-3.404-0.337-5.967-2.956-8.524-5.121c-2.22-1.881-5.52-3.087-7.528-5.028
			c-2.791-2.697,0.932-3.176,3.506-3.538C62.141,313.802,69.251,314.277,75.915,316.195z"/>
		<path fill="#9AC670" d="M66.054,323.07c-3.148-3.937-19.298-10.063-22.907-13.582c-6.275-6.119-9.941-14.831-9.929-23.596
			c0.014-10.557,5.074-20.601,5.219-31.156c0.067-4.852-0.912-9.686-0.673-14.531c0.239-4.847,2.011-10.018,6.14-12.566
			c5.949-3.672,14.273-0.01,17.845,6c3.572,6.009,3.554,13.447,2.918,20.408c-0.637,6.962-1.776,14.074-0.105,20.861
			c2.707,10.994,12.306,19.227,15.316,30.141c1.156,4.188-9.799,12.988-9.919,17.332c-0.137,4.933-0.359,11.411-2.526,15.844
			c-3.041,6.221,4.824,8.786-1.148,1.837C62.251,335.37,70.578,328.726,66.054,323.07z"/>
		<g>
			<path fill="#5353C6" d="M67.237,328.759l-0.492-0.088c2.046-11.521-0.274-23.86-6.367-33.852
				c-0.68-1.114-1.421-2.229-2.138-3.307c-2.018-3.035-4.105-6.174-5.111-9.734c-1.498-5.303-0.452-10.876,0.56-16.266
				c0.265-1.41,0.538-2.868,0.759-4.29c1.703-10.944-0.059-20.732-4.961-27.562l0.406-0.291c4.979,6.936,6.772,16.854,5.049,27.929
				c-0.223,1.431-0.497,2.893-0.762,4.307c-1,5.333-2.035,10.848-0.569,16.036c0.984,3.486,3.049,6.591,5.046,9.595
				c0.719,1.081,1.463,2.2,2.148,3.323C66.96,304.653,69.305,317.118,67.237,328.759z"/>
		</g>
		<g>
			<path fill="#5353C6" d="M54.766,258.687c-3.107-3.701-5.994-6.53-9.359-9.174l0.309-0.393c3.394,2.665,6.304,5.517,9.434,9.244
				L54.766,258.687z"/>
		</g>
		<g>
			<path fill="#5353C6" d="M55.788,286.75l-0.426-0.262c0.787-1.277,1.725-2.854,2.664-4.43c0.94-1.578,1.879-3.156,2.667-4.436
				l0.426,0.262c-0.787,1.277-1.725,2.854-2.664,4.43C57.516,283.893,56.576,285.471,55.788,286.75z"/>
		</g>
		<g>
			<path fill="#5353C6" d="M66.13,309.167c-1.433-2.251-4.273-2.942-7.02-3.611l-0.742-0.183c-4.081-1.017-7.961-2.661-11.533-4.887
				l0.265-0.424c3.527,2.197,7.359,3.821,11.389,4.826l0.739,0.182c2.71,0.659,5.782,1.407,7.323,3.829L66.13,309.167z"/>
		</g>
		<g>
			<path fill="#5353C6" d="M52.701,271.576c-2.753-2.643-5.355-5.5-7.734-8.494l0.392-0.311c2.365,2.976,4.952,5.816,7.689,8.443
				L52.701,271.576z"/>
		</g>
		<g>
			
				<rect x="56.613" y="239.409" transform="matrix(0.8994 0.437 -0.437 0.8994 112.3078 -0.3265)" fill="#5353C6" width="0.501" height="8.963"/>
		</g>
		<g>
			<path fill="#5353C6" d="M63.014,298.492l-0.463-0.188c1.123-2.77,2.416-5.504,3.844-8.126l0.439,0.238
				C65.415,293.023,64.13,295.74,63.014,298.492z"/>
		</g>
		<path fill="#5353C6" d="M81.057,319.418c-9.973,2.861-20.987,1.926-30.334-2.578l5.358,33.5h16.576L81.057,319.418z"/>
		<path fill="#FFFFFF" d="M76.09,337.702l0.705-2.595c-0.419,0.134-0.841,0.258-1.268,0.362c-2.538,0.62-5.177,0.713-7.789,0.629
			c-4.198-0.137-8.431-0.762-12.382-2.228c-0.71-0.264-1.386-0.57-2.052-0.894l0.444,2.78c0.258,0.11,0.517,0.221,0.776,0.325
			C61.373,338.827,69.202,340.263,76.09,337.702z"/>
	</g>
	<path fill="#ACEDFC" d="M332.662,118.971l-1.996-0.339c-0.208-0.671-0.476-1.319-0.802-1.937l1.176-1.646
		c0.499-0.701,0.422-1.657-0.189-2.263l-1.771-1.771c-0.333-0.333-0.772-0.517-1.242-0.517c-0.368,0-0.719,0.113-1.016,0.327
		l-1.651,1.176c-0.642-0.339-1.313-0.618-2.008-0.826l-0.333-1.972c-0.143-0.85-0.873-1.468-1.734-1.468h-2.501
		c-0.862,0-1.593,0.618-1.735,1.468l-0.344,2.02c-0.666,0.208-1.313,0.481-1.932,0.814l-1.633-1.176
		c-0.298-0.214-0.654-0.327-1.022-0.327c-0.47,0-0.915,0.184-1.241,0.517l-1.776,1.771c-0.606,0.606-0.689,1.563-0.19,2.264
		l1.188,1.669c-0.327,0.624-0.589,1.271-0.79,1.942l-1.973,0.333c-0.85,0.143-1.468,0.874-1.468,1.735v2.501
		c0,0.861,0.618,1.592,1.468,1.735l2.02,0.345c0.208,0.665,0.481,1.313,0.814,1.931l-1.171,1.627
		c-0.499,0.701-0.422,1.658,0.19,2.264l1.771,1.77c0.332,0.333,0.772,0.517,1.241,0.517c0.368,0,0.719-0.113,1.016-0.327l1.67-1.188
		c0.6,0.315,1.229,0.57,1.877,0.772l0.333,1.996c0.143,0.85,0.873,1.468,1.734,1.468h2.507c0.862,0,1.593-0.618,1.735-1.468
		l0.338-1.996c0.672-0.208,1.319-0.476,1.938-0.802l1.646,1.176c0.297,0.213,0.653,0.327,1.021,0.327
		c0.47,0,0.909-0.184,1.242-0.517l1.771-1.771c0.605-0.606,0.688-1.563,0.189-2.264l-1.176-1.651c0.326-0.624,0.6-1.271,0.802-1.937
		l1.996-0.333c0.85-0.142,1.468-0.873,1.468-1.735v-2.501C334.13,119.844,333.512,119.113,332.662,118.971z M319.898,127.903
		c-3.285,0-5.947-2.663-5.947-5.948c0-3.285,2.662-5.947,5.947-5.947s5.947,2.663,5.947,5.947
		C325.846,125.241,323.184,127.903,319.898,127.903z"/>
	<path opacity="0.7" fill="#ACEDFC" d="M312.207,84.041l-1.633-0.277c-0.171-0.549-0.39-1.079-0.657-1.584l0.963-1.347
		c0.408-0.574,0.346-1.356-0.155-1.852l-1.449-1.449c-0.271-0.272-0.632-0.423-1.016-0.423c-0.302,0-0.588,0.092-0.831,0.267
		l-1.352,0.963c-0.525-0.277-1.074-0.506-1.644-0.676l-0.272-1.614c-0.116-0.695-0.714-1.201-1.419-1.201h-2.047
		c-0.705,0-1.303,0.505-1.42,1.201l-0.281,1.653c-0.545,0.17-1.074,0.394-1.58,0.666l-1.337-0.962
		c-0.243-0.175-0.535-0.268-0.836-0.268c-0.385,0-0.749,0.151-1.017,0.423l-1.453,1.449c-0.496,0.496-0.564,1.279-0.155,1.853
		l0.972,1.366c-0.268,0.511-0.481,1.041-0.646,1.59l-1.613,0.272c-0.695,0.117-1.201,0.715-1.201,1.42v2.046
		c0,0.705,0.506,1.303,1.201,1.42l1.652,0.282c0.17,0.544,0.394,1.074,0.666,1.58l-0.958,1.332
		c-0.408,0.574-0.345,1.356,0.155,1.852l1.449,1.449c0.272,0.272,0.632,0.423,1.016,0.423c0.302,0,0.589-0.092,0.832-0.267
		l1.365-0.972c0.491,0.257,1.007,0.466,1.537,0.632l0.271,1.633c0.117,0.695,0.715,1.201,1.42,1.201h2.052
		c0.705,0,1.303-0.505,1.419-1.201l0.277-1.633c0.55-0.17,1.079-0.389,1.585-0.656l1.347,0.962c0.243,0.175,0.534,0.268,0.836,0.268
		c0.384,0,0.744-0.151,1.016-0.423l1.449-1.449c0.496-0.496,0.563-1.278,0.155-1.852l-0.962-1.352c0.267-0.51,0.49-1.04,0.655-1.584
		l1.634-0.272c0.695-0.117,1.201-0.714,1.201-1.419V85.46C313.408,84.755,312.902,84.158,312.207,84.041z M301.763,91.351
		c-2.688,0-4.867-2.179-4.867-4.867s2.179-4.867,4.867-4.867c2.688,0,4.867,2.179,4.867,4.867S304.45,91.351,301.763,91.351z"/>
	<polygon fill="#ACEDFC" points="299.882,106.902 256.065,106.902 256.065,137.458 279.419,137.458 276.937,145.279 
		287.088,137.458 299.882,137.458 	"/>
	<g>
		<circle fill="#5353C6" cx="269.105" cy="122.698" r="1.702"/>
		<circle fill="#5353C6" cx="277.615" cy="122.698" r="1.702"/>
		<circle fill="#5353C6" cx="286.124" cy="122.698" r="1.702"/>
	</g>
	<text transform="matrix(1 0 0 1 103.7686 -7.0996)" display="none"><tspan x="0" y="0" display="inline" fill="#5353C6" font-family="'Metropolis-SemiBold'" font-size="19">CREATIVE PROCESS CONCEPT</tspan><tspan x="32.423" y="27" display="inline" fill="#5353C6" font-family="'Metropolis-Thin'" font-size="19">FOR LANDING PAGES</tspan></text>
</g>
<g id="DESIGNED_BY_FREEPIK" display="none">
	<g display="inline">
		<g>
			<path fill="#FFFFFF" d="M150.706,401.448v-0.161c-0.218,0.249-0.432,0.453-0.644,0.608c-0.211,0.157-0.441,0.276-0.689,0.356
				c-0.247,0.082-0.517,0.122-0.81,0.122c-0.388,0-0.747-0.082-1.078-0.246c-0.33-0.164-0.616-0.399-0.857-0.704
				c-0.242-0.304-0.425-0.662-0.549-1.074c-0.125-0.411-0.187-0.856-0.187-1.335c0-1.013,0.248-1.804,0.742-2.369
				s1.146-0.849,1.953-0.849c0.467,0,0.861,0.081,1.181,0.24c0.321,0.16,0.633,0.407,0.938,0.738v-2.392
				c0-0.333,0.066-0.583,0.199-0.754c0.132-0.17,0.321-0.255,0.566-0.255s0.434,0.078,0.567,0.234
				c0.133,0.157,0.199,0.387,0.199,0.691v7.147c0,0.309-0.071,0.54-0.213,0.694s-0.326,0.231-0.552,0.231
				c-0.222,0-0.404-0.08-0.549-0.24C150.778,401.973,150.706,401.745,150.706,401.448z M147.518,399.067
				c0,0.439,0.068,0.813,0.205,1.122s0.323,0.541,0.561,0.697c0.237,0.156,0.497,0.235,0.777,0.235c0.285,0,0.545-0.074,0.781-0.224
				c0.235-0.147,0.423-0.376,0.564-0.682c0.141-0.307,0.21-0.69,0.21-1.149c0-0.432-0.07-0.803-0.21-1.113s-0.33-0.548-0.57-0.713
				c-0.24-0.163-0.502-0.245-0.787-0.245c-0.296,0-0.562,0.084-0.795,0.252c-0.233,0.168-0.415,0.409-0.543,0.724
				C147.583,398.287,147.518,398.652,147.518,399.067z"/>
			<path fill="#FFFFFF" d="M157.852,399.478h-3.169c0.004,0.368,0.078,0.692,0.223,0.974c0.144,0.281,0.336,0.493,0.576,0.635
				c0.24,0.143,0.504,0.213,0.792,0.213c0.194,0,0.371-0.021,0.531-0.066c0.161-0.047,0.315-0.117,0.466-0.215
				c0.15-0.096,0.289-0.2,0.416-0.312c0.126-0.111,0.29-0.262,0.492-0.452c0.083-0.07,0.202-0.106,0.357-0.106
				c0.166,0,0.3,0.046,0.403,0.138c0.103,0.091,0.155,0.219,0.155,0.386c0,0.146-0.058,0.316-0.172,0.513
				c-0.116,0.196-0.289,0.384-0.52,0.564c-0.232,0.18-0.522,0.329-0.873,0.447c-0.35,0.119-0.753,0.179-1.208,0.179
				c-1.041,0-1.85-0.297-2.428-0.891c-0.578-0.593-0.866-1.398-0.866-2.416c0-0.479,0.071-0.923,0.213-1.332
				c0.143-0.41,0.351-0.761,0.623-1.054c0.273-0.293,0.609-0.518,1.009-0.674c0.399-0.156,0.843-0.234,1.33-0.234
				c0.633,0,1.176,0.133,1.629,0.4c0.454,0.267,0.793,0.612,1.019,1.035c0.225,0.424,0.338,0.856,0.338,1.294
				c0,0.408-0.117,0.672-0.35,0.794C158.605,399.417,158.276,399.478,157.852,399.478z M154.683,398.558h2.938
				c-0.039-0.555-0.189-0.97-0.448-1.244c-0.26-0.275-0.6-0.412-1.024-0.412c-0.404,0-0.735,0.139-0.994,0.418
				C154.895,397.598,154.738,398.011,154.683,398.558z"/>
			<path fill="#FFFFFF" d="M165.236,400.254c0,0.447-0.108,0.831-0.327,1.149c-0.217,0.318-0.539,0.561-0.964,0.725
				c-0.425,0.164-0.943,0.246-1.552,0.246c-0.582,0-1.08-0.089-1.496-0.268c-0.415-0.178-0.722-0.4-0.919-0.667
				c-0.198-0.268-0.297-0.535-0.297-0.805c0-0.179,0.063-0.33,0.19-0.457c0.126-0.126,0.287-0.189,0.481-0.189
				c0.17,0,0.3,0.041,0.391,0.124s0.179,0.2,0.261,0.351c0.167,0.289,0.366,0.504,0.597,0.647c0.231,0.142,0.547,0.213,0.947,0.213
				c0.324,0,0.59-0.072,0.798-0.216c0.208-0.146,0.311-0.311,0.311-0.497c0-0.284-0.107-0.491-0.323-0.622s-0.571-0.256-1.065-0.375
				c-0.558-0.138-1.012-0.283-1.362-0.437c-0.351-0.151-0.63-0.353-0.84-0.602c-0.209-0.25-0.314-0.557-0.314-0.921
				c0-0.323,0.097-0.631,0.291-0.92c0.194-0.288,0.48-0.519,0.858-0.691c0.377-0.172,0.833-0.259,1.368-0.259
				c0.419,0,0.796,0.044,1.13,0.132c0.335,0.086,0.614,0.204,0.837,0.351c0.224,0.146,0.394,0.308,0.51,0.485
				c0.117,0.179,0.175,0.353,0.175,0.523c0,0.186-0.062,0.338-0.187,0.457c-0.125,0.117-0.301,0.178-0.531,0.178
				c-0.167,0-0.308-0.047-0.424-0.143c-0.117-0.095-0.25-0.237-0.401-0.427c-0.123-0.158-0.266-0.285-0.433-0.381
				c-0.166-0.095-0.392-0.142-0.677-0.142c-0.293,0-0.536,0.062-0.73,0.188c-0.193,0.123-0.291,0.278-0.291,0.465
				c0,0.171,0.071,0.31,0.213,0.418c0.143,0.109,0.334,0.2,0.576,0.271c0.242,0.071,0.573,0.158,0.998,0.261
				c0.502,0.123,0.913,0.271,1.231,0.439c0.318,0.17,0.56,0.371,0.725,0.604C165.155,399.694,165.236,399.958,165.236,400.254z"/>
			<path fill="#FFFFFF" d="M166.892,395.031c-0.226,0-0.418-0.069-0.579-0.208c-0.16-0.138-0.241-0.334-0.241-0.588
				c0-0.229,0.083-0.418,0.247-0.566c0.164-0.149,0.355-0.224,0.573-0.224c0.21,0,0.396,0.067,0.558,0.202
				c0.163,0.135,0.244,0.33,0.244,0.588c0,0.25-0.08,0.444-0.238,0.585C167.297,394.961,167.109,395.031,166.892,395.031z
				 M167.694,396.705v4.684c0,0.324-0.077,0.57-0.232,0.736s-0.35,0.249-0.587,0.249c-0.238,0-0.431-0.085-0.579-0.255
				c-0.149-0.171-0.223-0.414-0.223-0.73v-4.637c0-0.319,0.074-0.562,0.223-0.724c0.148-0.162,0.341-0.244,0.579-0.244
				c0.237,0,0.433,0.082,0.587,0.244S167.694,396.416,167.694,396.705z"/>
			<path fill="#FFFFFF" d="M174.793,396.973v4.707c0,0.538-0.058,1.001-0.173,1.39c-0.114,0.387-0.298,0.708-0.552,0.961
				s-0.585,0.441-0.994,0.563c-0.41,0.123-0.919,0.185-1.529,0.185c-0.558,0-1.057-0.078-1.496-0.234
				c-0.439-0.157-0.777-0.358-1.015-0.605c-0.237-0.247-0.356-0.502-0.356-0.763c0-0.198,0.067-0.36,0.203-0.483
				c0.134-0.126,0.297-0.188,0.486-0.188c0.237,0,0.445,0.104,0.624,0.314c0.086,0.106,0.177,0.215,0.27,0.323
				c0.093,0.109,0.197,0.202,0.309,0.28c0.113,0.076,0.249,0.134,0.406,0.171c0.159,0.037,0.341,0.057,0.546,0.057
				c0.419,0,0.745-0.059,0.977-0.176c0.231-0.116,0.394-0.279,0.487-0.489c0.093-0.209,0.147-0.434,0.163-0.674
				c0.016-0.239,0.027-0.624,0.035-1.155c-0.25,0.35-0.537,0.615-0.864,0.797c-0.326,0.182-0.715,0.272-1.166,0.272
				c-0.542,0-1.016-0.139-1.422-0.415c-0.406-0.277-0.717-0.665-0.935-1.164c-0.218-0.499-0.326-1.074-0.326-1.727
				c0-0.487,0.065-0.927,0.198-1.318c0.133-0.393,0.322-0.723,0.567-0.992c0.246-0.269,0.528-0.472,0.849-0.608
				c0.32-0.136,0.673-0.204,1.057-0.204c0.459,0,0.857,0.089,1.193,0.264c0.336,0.177,0.649,0.453,0.938,0.829v-0.221
				c0-0.28,0.069-0.498,0.208-0.653c0.139-0.153,0.317-0.231,0.535-0.231c0.313,0,0.52,0.103,0.623,0.307
				C174.741,396.294,174.793,396.589,174.793,396.973z M170.097,399.026c0,0.656,0.143,1.153,0.43,1.489
				c0.287,0.337,0.658,0.505,1.113,0.505c0.269,0,0.523-0.072,0.762-0.216c0.24-0.146,0.435-0.363,0.585-0.653
				c0.15-0.291,0.226-0.645,0.226-1.06c0-0.661-0.146-1.176-0.437-1.543c-0.291-0.368-0.674-0.553-1.149-0.553
				c-0.463,0-0.834,0.177-1.113,0.528C170.236,397.876,170.097,398.378,170.097,399.026z"/>
			<path fill="#FFFFFF" d="M177.368,396.682v0.195c0.285-0.376,0.597-0.651,0.935-0.828c0.338-0.176,0.727-0.265,1.167-0.265
				c0.427,0,0.809,0.094,1.146,0.28c0.336,0.186,0.588,0.449,0.754,0.788c0.107,0.198,0.176,0.413,0.208,0.642
				c0.032,0.23,0.048,0.522,0.048,0.879v3.016c0,0.324-0.074,0.57-0.223,0.736c-0.148,0.166-0.341,0.249-0.579,0.249
				c-0.242,0-0.438-0.085-0.588-0.255c-0.15-0.171-0.225-0.414-0.225-0.73v-2.701c0-0.534-0.075-0.943-0.223-1.226
				s-0.444-0.425-0.888-0.425c-0.289,0-0.552,0.086-0.789,0.258c-0.237,0.173-0.412,0.41-0.522,0.71
				c-0.079,0.242-0.119,0.692-0.119,1.354v2.03c0,0.328-0.077,0.575-0.229,0.739c-0.152,0.164-0.349,0.246-0.59,0.246
				c-0.234,0-0.426-0.085-0.576-0.255c-0.15-0.171-0.226-0.414-0.226-0.73v-4.684c0-0.309,0.067-0.54,0.202-0.692
				c0.135-0.151,0.319-0.229,0.552-0.229c0.143,0,0.271,0.034,0.387,0.102c0.114,0.068,0.207,0.169,0.276,0.303
				C177.334,396.323,177.368,396.488,177.368,396.682z"/>
			<path fill="#FFFFFF" d="M187.228,399.478h-3.17c0.004,0.368,0.078,0.692,0.223,0.974c0.144,0.281,0.336,0.493,0.576,0.635
				c0.239,0.143,0.503,0.213,0.792,0.213c0.194,0,0.371-0.021,0.532-0.066c0.16-0.047,0.315-0.117,0.466-0.215
				c0.15-0.096,0.288-0.2,0.416-0.312c0.126-0.111,0.29-0.262,0.492-0.452c0.083-0.07,0.202-0.106,0.356-0.106
				c0.167,0,0.301,0.046,0.404,0.138c0.103,0.091,0.154,0.219,0.154,0.386c0,0.146-0.057,0.316-0.172,0.513
				c-0.115,0.196-0.288,0.384-0.52,0.564c-0.231,0.18-0.522,0.329-0.872,0.447c-0.351,0.119-0.753,0.179-1.208,0.179
				c-1.041,0-1.85-0.297-2.428-0.891c-0.577-0.593-0.866-1.398-0.866-2.416c0-0.479,0.071-0.923,0.214-1.332
				c0.142-0.41,0.351-0.761,0.624-1.054s0.609-0.518,1.009-0.674s0.843-0.234,1.33-0.234c0.633,0,1.175,0.133,1.629,0.4
				c0.453,0.267,0.792,0.612,1.019,1.035c0.225,0.424,0.338,0.856,0.338,1.294c0,0.408-0.117,0.672-0.351,0.794
				C187.98,399.417,187.651,399.478,187.228,399.478z M184.058,398.558h2.938c-0.04-0.555-0.189-0.97-0.448-1.244
				c-0.259-0.275-0.6-0.412-1.023-0.412c-0.404,0-0.736,0.139-0.995,0.418C184.27,397.598,184.113,398.011,184.058,398.558z"/>
			<path fill="#FFFFFF" d="M193.833,401.448v-0.161c-0.218,0.249-0.432,0.453-0.644,0.608c-0.211,0.157-0.441,0.276-0.688,0.356
				c-0.247,0.082-0.517,0.122-0.81,0.122c-0.389,0-0.748-0.082-1.078-0.246c-0.331-0.164-0.617-0.399-0.858-0.704
				c-0.242-0.304-0.425-0.662-0.549-1.074c-0.125-0.411-0.187-0.856-0.187-1.335c0-1.013,0.247-1.804,0.742-2.369
				c0.495-0.565,1.146-0.849,1.953-0.849c0.467,0,0.861,0.081,1.181,0.24c0.32,0.16,0.633,0.407,0.938,0.738v-2.392
				c0-0.333,0.066-0.583,0.199-0.754c0.132-0.17,0.322-0.255,0.567-0.255s0.434,0.078,0.567,0.234
				c0.132,0.157,0.199,0.387,0.199,0.691v7.147c0,0.309-0.071,0.54-0.214,0.694s-0.326,0.231-0.552,0.231
				c-0.221,0-0.404-0.08-0.549-0.24C193.906,401.973,193.833,401.745,193.833,401.448z M190.646,399.067
				c0,0.439,0.067,0.813,0.204,1.122s0.324,0.541,0.562,0.697c0.237,0.156,0.497,0.235,0.777,0.235c0.285,0,0.545-0.074,0.78-0.224
				c0.236-0.147,0.424-0.376,0.564-0.682c0.141-0.307,0.211-0.69,0.211-1.149c0-0.432-0.07-0.803-0.211-1.113
				c-0.14-0.311-0.33-0.548-0.57-0.713c-0.24-0.163-0.501-0.245-0.787-0.245c-0.296,0-0.562,0.084-0.795,0.252
				c-0.233,0.168-0.414,0.409-0.543,0.724C190.71,398.287,190.646,398.652,190.646,399.067z"/>
			<path fill="#FFFFFF" d="M200.458,394.301v2.475c0.304-0.315,0.615-0.559,0.932-0.727c0.317-0.168,0.709-0.252,1.176-0.252
				c0.538,0,1.01,0.128,1.416,0.382c0.405,0.257,0.72,0.626,0.943,1.111c0.224,0.483,0.336,1.06,0.336,1.725
				c0,0.491-0.063,0.94-0.187,1.351c-0.125,0.409-0.306,0.765-0.543,1.064c-0.238,0.301-0.525,0.534-0.863,0.698
				c-0.339,0.164-0.712,0.246-1.119,0.246c-0.25,0-0.484-0.029-0.704-0.089c-0.22-0.06-0.407-0.137-0.561-0.234
				c-0.154-0.097-0.286-0.197-0.395-0.3c-0.109-0.103-0.253-0.258-0.431-0.464v0.161c0,0.305-0.073,0.535-0.22,0.692
				c-0.146,0.156-0.332,0.233-0.558,0.233c-0.229,0-0.413-0.077-0.549-0.233c-0.137-0.157-0.205-0.388-0.205-0.692v-7.076
				c0-0.329,0.066-0.577,0.199-0.745c0.133-0.168,0.318-0.252,0.555-0.252c0.25,0,0.441,0.08,0.576,0.24
				C200.39,393.776,200.458,394.004,200.458,394.301z M200.535,399.115c0,0.646,0.147,1.141,0.442,1.486
				c0.294,0.347,0.682,0.521,1.16,0.521c0.408,0,0.759-0.177,1.054-0.531c0.295-0.354,0.442-0.862,0.442-1.523
				c0-0.427-0.061-0.796-0.184-1.104c-0.123-0.31-0.296-0.548-0.522-0.716c-0.226-0.168-0.489-0.252-0.79-0.252
				c-0.309,0-0.584,0.084-0.825,0.252s-0.431,0.411-0.57,0.73C200.604,398.296,200.535,398.676,200.535,399.115z"/>
			<path fill="#FFFFFF" d="M207.361,402.576l0.148-0.362l-1.995-5.022c-0.122-0.288-0.184-0.498-0.184-0.629
				c0-0.139,0.036-0.267,0.107-0.386c0.071-0.118,0.169-0.214,0.293-0.284c0.125-0.072,0.255-0.108,0.389-0.108
				c0.233,0,0.409,0.075,0.529,0.224c0.119,0.148,0.223,0.36,0.314,0.638l1.372,3.989l1.3-3.711c0.103-0.3,0.195-0.535,0.279-0.706
				c0.083-0.17,0.171-0.285,0.264-0.344c0.093-0.06,0.225-0.09,0.395-0.09c0.124,0,0.241,0.033,0.354,0.099s0.2,0.153,0.261,0.265
				c0.062,0.11,0.093,0.227,0.093,0.35c-0.017,0.075-0.042,0.182-0.078,0.321c-0.036,0.138-0.079,0.279-0.13,0.421l-2.113,5.532
				c-0.183,0.487-0.36,0.868-0.535,1.146s-0.404,0.49-0.691,0.639s-0.674,0.223-1.161,0.223c-0.475,0-0.831-0.052-1.068-0.154
				c-0.238-0.104-0.356-0.291-0.356-0.564c0-0.186,0.056-0.329,0.169-0.43c0.112-0.102,0.28-0.152,0.501-0.152
				c0.087,0,0.172,0.013,0.255,0.036c0.103,0.023,0.192,0.036,0.267,0.036c0.186,0,0.333-0.027,0.439-0.084
				c0.106-0.055,0.203-0.15,0.288-0.288C207.152,403.042,207.25,402.841,207.361,402.576z"/>
		</g>
		<g>
			<path fill="#FFFFFF" d="M230.838,395.925h0.387v-0.486c0-0.509,0.062-0.91,0.191-1.211c0.127-0.299,0.347-0.517,0.654-0.653
				c0.307-0.135,0.727-0.203,1.26-0.203c0.95,0,1.421,0.229,1.421,0.696c0,0.148-0.05,0.277-0.15,0.384
				c-0.097,0.106-0.214,0.16-0.349,0.16c-0.063,0-0.174-0.012-0.329-0.037c-0.148-0.021-0.283-0.035-0.39-0.035
				c-0.292,0-0.479,0.089-0.565,0.26c-0.08,0.172-0.122,0.418-0.122,0.74v0.386h0.396c0.619,0,0.926,0.186,0.926,0.56
				c0,0.262-0.08,0.432-0.246,0.503c-0.163,0.071-0.39,0.107-0.68,0.107h-0.396v4.294c0,0.319-0.075,0.563-0.231,0.73
				c-0.15,0.17-0.346,0.254-0.589,0.254c-0.229,0-0.419-0.084-0.573-0.254c-0.153-0.168-0.228-0.411-0.228-0.73v-4.294h-0.446
				c-0.243,0-0.427-0.053-0.559-0.164c-0.131-0.106-0.196-0.249-0.196-0.424C230.023,396.117,230.295,395.925,230.838,395.925"/>
			<path fill="#FFFFFF" d="M236.144,400.034v1.354c0,0.327-0.083,0.574-0.233,0.737c-0.154,0.166-0.35,0.247-0.586,0.247
				c-0.239,0-0.43-0.082-0.58-0.25c-0.147-0.165-0.225-0.41-0.225-0.734v-4.514c0-0.729,0.263-1.094,0.788-1.094
				c0.271,0,0.464,0.085,0.583,0.256s0.185,0.421,0.198,0.755c0.192-0.334,0.391-0.584,0.593-0.755
				c0.208-0.171,0.477-0.256,0.818-0.256c0.344,0,0.671,0.085,0.991,0.256c0.322,0.171,0.481,0.397,0.481,0.678
				c0,0.196-0.068,0.362-0.203,0.488c-0.138,0.131-0.284,0.194-0.441,0.194c-0.063,0-0.207-0.039-0.433-0.112
				c-0.229-0.07-0.431-0.107-0.602-0.107c-0.238,0-0.433,0.063-0.583,0.186c-0.151,0.129-0.269,0.311-0.353,0.555
				c-0.081,0.246-0.137,0.541-0.17,0.878C236.158,399.135,236.144,399.548,236.144,400.034"/>
			<path fill="#FFFFFF" d="M243.594,399.477h-3.171c0.006,0.367,0.077,0.693,0.222,0.974c0.146,0.279,0.337,0.491,0.578,0.636
				c0.24,0.142,0.502,0.212,0.793,0.212c0.193,0,0.37-0.021,0.53-0.069c0.159-0.043,0.315-0.116,0.466-0.213
				c0.151-0.096,0.287-0.199,0.415-0.313c0.127-0.109,0.292-0.26,0.494-0.449c0.084-0.071,0.202-0.109,0.355-0.109
				c0.167,0,0.301,0.047,0.405,0.139c0.104,0.093,0.152,0.22,0.152,0.386c0,0.147-0.056,0.317-0.167,0.513
				c-0.118,0.198-0.29,0.385-0.522,0.566c-0.234,0.178-0.524,0.329-0.874,0.446c-0.35,0.118-0.754,0.179-1.207,0.179
				c-1.044,0-1.853-0.296-2.43-0.889c-0.577-0.596-0.869-1.401-0.869-2.418c0-0.479,0.073-0.924,0.217-1.334
				c0.141-0.411,0.349-0.76,0.625-1.055c0.271-0.294,0.605-0.518,1.008-0.674c0.398-0.156,0.841-0.234,1.329-0.234
				c0.632,0,1.176,0.134,1.63,0.404c0.452,0.264,0.796,0.61,1.018,1.033c0.226,0.426,0.339,0.855,0.339,1.297
				c0,0.405-0.118,0.669-0.352,0.791C244.346,399.416,244.018,399.477,243.594,399.477 M240.423,398.555h2.938
				c-0.039-0.553-0.187-0.969-0.446-1.242c-0.262-0.276-0.6-0.412-1.025-0.412c-0.403,0-0.735,0.138-0.995,0.418
				C240.636,397.598,240.478,398.009,240.423,398.555"/>
			<path fill="#FFFFFF" d="M250.336,399.477h-3.171c0.004,0.367,0.078,0.693,0.222,0.974c0.145,0.279,0.337,0.491,0.576,0.636
				c0.239,0.142,0.503,0.212,0.794,0.212c0.192,0,0.371-0.021,0.528-0.069c0.162-0.043,0.316-0.116,0.469-0.213
				c0.151-0.096,0.287-0.199,0.415-0.313c0.124-0.109,0.29-0.26,0.492-0.449c0.085-0.071,0.204-0.109,0.355-0.109
				c0.168,0,0.302,0.047,0.406,0.139c0.104,0.093,0.15,0.22,0.15,0.386c0,0.147-0.055,0.317-0.171,0.513
				c-0.11,0.198-0.284,0.385-0.519,0.566c-0.231,0.178-0.525,0.329-0.872,0.446c-0.349,0.118-0.755,0.179-1.209,0.179
				c-1.042,0-1.85-0.296-2.43-0.889c-0.577-0.596-0.868-1.401-0.868-2.418c0-0.479,0.073-0.924,0.218-1.334
				c0.142-0.411,0.349-0.76,0.622-1.055c0.272-0.294,0.608-0.518,1.009-0.674c0.399-0.156,0.845-0.234,1.331-0.234
				c0.631,0,1.174,0.134,1.633,0.404c0.45,0.264,0.791,0.61,1.014,1.033c0.225,0.426,0.341,0.855,0.341,1.297
				c0,0.405-0.12,0.669-0.352,0.791C251.086,399.416,250.759,399.477,250.336,399.477 M247.165,398.555h2.938
				c-0.04-0.553-0.189-0.969-0.446-1.242c-0.264-0.276-0.602-0.412-1.027-0.412c-0.403,0-0.734,0.138-0.995,0.418
				C247.377,397.598,247.218,398.009,247.165,398.555"/>
			<path fill="#FFFFFF" d="M253.886,396.693v0.194c0.304-0.376,0.621-0.651,0.953-0.828c0.324-0.178,0.698-0.267,1.113-0.267
				c0.497,0,0.96,0.13,1.38,0.386c0.419,0.259,0.749,0.635,0.993,1.13c0.243,0.496,0.366,1.08,0.366,1.758
				c0,0.498-0.07,0.957-0.21,1.376c-0.14,0.417-0.336,0.767-0.581,1.05c-0.245,0.281-0.534,0.501-0.868,0.653
				c-0.339,0.151-0.694,0.228-1.08,0.228c-0.461,0-0.853-0.093-1.165-0.279c-0.314-0.183-0.614-0.459-0.901-0.816v2.433
				c0,0.71-0.26,1.068-0.777,1.068c-0.307,0-0.505-0.091-0.607-0.274c-0.095-0.187-0.146-0.452-0.146-0.807v-6.996
				c0-0.31,0.066-0.537,0.2-0.691c0.134-0.15,0.319-0.229,0.553-0.229c0.23,0,0.416,0.078,0.56,0.234
				C253.815,396.174,253.886,396.396,253.886,396.693 M257.063,399.048c0-0.428-0.066-0.796-0.196-1.102
				c-0.131-0.308-0.313-0.542-0.542-0.705c-0.229-0.164-0.488-0.247-0.77-0.247c-0.446,0-0.824,0.178-1.131,0.527
				c-0.308,0.354-0.462,0.872-0.462,1.558c0,0.642,0.152,1.146,0.46,1.504c0.304,0.358,0.679,0.537,1.133,0.537
				c0.268,0,0.519-0.079,0.748-0.233c0.231-0.157,0.415-0.392,0.552-0.704C256.994,399.869,257.063,399.49,257.063,399.048"/>
			<path fill="#FFFFFF" d="M260.323,395.027c-0.227,0-0.418-0.071-0.577-0.209c-0.162-0.14-0.242-0.333-0.242-0.586
				c0-0.229,0.082-0.419,0.248-0.568c0.164-0.146,0.354-0.223,0.571-0.223c0.212,0,0.397,0.066,0.559,0.199
				c0.162,0.137,0.244,0.334,0.244,0.592c0,0.25-0.079,0.444-0.236,0.585C260.731,394.956,260.543,395.027,260.323,395.027
				 M261.126,396.701v4.688c0,0.323-0.077,0.568-0.231,0.733c-0.156,0.168-0.351,0.25-0.588,0.25c-0.238,0-0.429-0.084-0.58-0.254
				c-0.146-0.173-0.223-0.416-0.223-0.729v-4.642c0-0.318,0.076-0.56,0.223-0.722c0.151-0.165,0.342-0.245,0.58-0.245
				c0.237,0,0.432,0.08,0.588,0.245C261.049,396.188,261.126,396.415,261.126,396.701"/>
			<path fill="#FFFFFF" d="M266.351,401.633l-1.428-2.354l-0.88,0.83v1.291c0,0.313-0.083,0.551-0.248,0.719
				c-0.16,0.17-0.354,0.254-0.566,0.254c-0.249,0-0.446-0.082-0.588-0.25c-0.142-0.165-0.215-0.41-0.215-0.734v-6.914
				c0-0.358,0.071-0.632,0.207-0.821c0.14-0.19,0.341-0.282,0.596-0.282c0.25,0,0.445,0.085,0.594,0.257
				c0.146,0.169,0.221,0.421,0.221,0.751v3.934l1.822-1.914c0.227-0.235,0.396-0.4,0.517-0.487c0.119-0.086,0.263-0.13,0.432-0.13
				c0.203,0,0.371,0.065,0.51,0.193c0.132,0.129,0.2,0.291,0.2,0.483c0,0.236-0.222,0.556-0.659,0.951l-0.861,0.789l1.662,2.614
				c0.121,0.195,0.212,0.34,0.265,0.441c0.053,0.099,0.082,0.199,0.082,0.288c0,0.259-0.072,0.459-0.213,0.609
				c-0.141,0.148-0.328,0.222-0.555,0.222c-0.197,0-0.352-0.051-0.458-0.16C266.68,402.104,266.532,401.911,266.351,401.633"/>
			<path fill="#FFFFFF" d="M269.873,402.373c-0.245,0-0.455-0.079-0.634-0.238c-0.178-0.155-0.268-0.379-0.268-0.665
				c0-0.241,0.086-0.449,0.256-0.622c0.172-0.175,0.38-0.262,0.63-0.262c0.249,0,0.46,0.087,0.64,0.258
				c0.174,0.172,0.264,0.382,0.264,0.626c0,0.282-0.09,0.505-0.264,0.662C270.317,402.294,270.109,402.373,269.873,402.373"/>
			<path fill="#FFFFFF" d="M277.935,400.366c0,0.2-0.061,0.418-0.182,0.646c-0.12,0.231-0.306,0.449-0.554,0.656
				c-0.247,0.208-0.558,0.377-0.935,0.503c-0.376,0.126-0.801,0.191-1.27,0.191c-1.004,0-1.786-0.294-2.349-0.876
				c-0.56-0.585-0.841-1.368-0.841-2.35c0-0.668,0.128-1.254,0.387-1.766c0.255-0.509,0.628-0.904,1.113-1.184
				c0.487-0.28,1.073-0.419,1.747-0.419c0.421,0,0.805,0.062,1.157,0.185c0.351,0.122,0.646,0.282,0.891,0.475
				c0.242,0.196,0.429,0.402,0.556,0.62c0.13,0.22,0.192,0.425,0.192,0.617s-0.07,0.356-0.214,0.491
				c-0.147,0.135-0.322,0.203-0.524,0.203c-0.137,0-0.248-0.035-0.338-0.104c-0.09-0.07-0.19-0.182-0.3-0.339
				c-0.198-0.299-0.403-0.526-0.622-0.675c-0.214-0.151-0.487-0.227-0.821-0.227c-0.476,0-0.864,0.187-1.158,0.562
				c-0.292,0.372-0.439,0.887-0.439,1.533c0,0.306,0.039,0.588,0.114,0.843c0.073,0.255,0.182,0.473,0.325,0.652
				c0.145,0.18,0.315,0.315,0.517,0.409c0.202,0.096,0.426,0.141,0.665,0.141c0.325,0,0.604-0.075,0.835-0.226
				c0.235-0.15,0.439-0.379,0.616-0.688c0.1-0.182,0.205-0.323,0.318-0.428c0.114-0.102,0.256-0.155,0.422-0.155
				c0.198,0,0.363,0.077,0.492,0.227C277.868,400.036,277.935,400.197,277.935,400.366"/>
			<path fill="#FFFFFF" d="M284.929,399.079c0,0.48-0.076,0.928-0.223,1.336c-0.154,0.408-0.37,0.759-0.656,1.05
				c-0.284,0.293-0.626,0.518-1.02,0.675c-0.399,0.154-0.844,0.234-1.337,0.234c-0.49,0-0.933-0.08-1.325-0.239
				c-0.39-0.155-0.732-0.384-1.017-0.676c-0.288-0.299-0.505-0.646-0.657-1.049c-0.144-0.402-0.219-0.846-0.219-1.331
				c0-0.491,0.077-0.941,0.224-1.35c0.151-0.408,0.368-0.757,0.649-1.045c0.282-0.289,0.621-0.511,1.02-0.669
				c0.401-0.156,0.843-0.234,1.325-0.234c0.49,0,0.937,0.078,1.337,0.239c0.398,0.156,0.739,0.384,1.027,0.674
				c0.286,0.297,0.502,0.644,0.649,1.045C284.854,398.146,284.929,398.59,284.929,399.079 M283.301,399.079
				c0-0.662-0.146-1.176-0.436-1.543c-0.29-0.373-0.682-0.556-1.172-0.556c-0.317,0-0.597,0.083-0.839,0.246
				c-0.242,0.164-0.426,0.406-0.556,0.728c-0.131,0.321-0.197,0.696-0.197,1.125c0,0.424,0.063,0.792,0.193,1.108
				c0.13,0.318,0.313,0.561,0.553,0.729c0.241,0.166,0.522,0.253,0.846,0.253c0.49,0,0.882-0.186,1.172-0.558
				C283.154,400.242,283.301,399.729,283.301,399.079"/>
			<path fill="#FFFFFF" d="M291.11,399.197v2.154c0,0.342-0.075,0.595-0.23,0.768c-0.156,0.17-0.357,0.255-0.611,0.255
				c-0.245,0-0.445-0.085-0.594-0.255c-0.155-0.173-0.232-0.426-0.232-0.768v-2.582c0-0.408-0.014-0.726-0.04-0.952
				c-0.028-0.222-0.105-0.41-0.227-0.552c-0.123-0.147-0.318-0.22-0.582-0.22c-0.531,0-0.879,0.181-1.048,0.55
				c-0.167,0.36-0.254,0.884-0.254,1.567v2.188c0,0.336-0.076,0.592-0.226,0.765c-0.155,0.171-0.354,0.258-0.603,0.258
				s-0.448-0.087-0.604-0.258c-0.157-0.173-0.235-0.429-0.235-0.765v-4.637c0-0.306,0.069-0.538,0.21-0.694
				c0.143-0.161,0.328-0.239,0.556-0.239c0.223,0,0.407,0.077,0.558,0.223c0.147,0.148,0.221,0.354,0.221,0.615v0.153
				c0.283-0.335,0.585-0.582,0.903-0.738c0.322-0.162,0.676-0.241,1.07-0.241c0.407,0,0.757,0.082,1.049,0.244
				c0.293,0.162,0.533,0.409,0.725,0.735c0.275-0.33,0.568-0.577,0.882-0.738c0.313-0.16,0.658-0.241,1.039-0.241
				c0.44,0,0.825,0.089,1.146,0.262c0.319,0.174,0.559,0.425,0.718,0.747c0.138,0.296,0.206,0.757,0.206,1.386v3.164
				c0,0.342-0.076,0.595-0.229,0.768c-0.154,0.17-0.359,0.255-0.612,0.255c-0.246,0-0.446-0.087-0.603-0.258
				c-0.156-0.173-0.235-0.429-0.235-0.765v-2.726c0-0.35-0.015-0.627-0.044-0.836c-0.029-0.211-0.11-0.388-0.238-0.529
				c-0.133-0.143-0.332-0.215-0.596-0.215c-0.214,0-0.417,0.066-0.609,0.192c-0.191,0.123-0.342,0.298-0.45,0.508
				C291.172,398.02,291.11,398.504,291.11,399.197"/>
		</g>
		<g>
			<path fill="#FFFFFF" d="M215.67,398.687c-0.001-0.003-0.001-0.007-0.001-0.011C215.669,398.68,215.669,398.684,215.67,398.687z"
				/>
			<path fill="#FFFFFF" d="M215.752,399.204c0.001,0,0.001,0,0.001,0c-0.031-0.147-0.055-0.294-0.074-0.438
				C215.699,398.911,215.723,399.059,215.752,399.204z"/>
			<path fill="#FFFFFF" d="M216.289,400.708c-0.003-0.006-0.007-0.013-0.011-0.021C216.282,400.695,216.285,400.702,216.289,400.708
				z"/>
			<path fill="#FFFFFF" d="M216.237,400.608c-0.014-0.027-0.027-0.057-0.041-0.084C216.21,400.554,216.223,400.581,216.237,400.608z
				"/>
			<path fill="#FFFFFF" d="M215.903,399.783c0.079,0.251,0.175,0.493,0.286,0.725c-0.113-0.236-0.207-0.479-0.283-0.725
				C215.904,399.783,215.903,399.783,215.903,399.783z"/>
			<path fill="#FFFFFF" d="M221.943,392.476c0.313,0,0.545,0.025,0.81,0.07l0.075-0.478c0,0-0.731-0.225-1.694-0.146l-0.076-0.26
				c0.299-0.063,0.523-0.329,0.523-0.646c0-0.364-0.296-0.658-0.661-0.658s-0.66,0.294-0.66,0.658c0,0.317,0.224,0.583,0.522,0.646
				l0.083,0.289c-1.021,0.141-1.834,0.539-1.834,0.539l0.144,0.44c0.618-0.205,1.154-0.33,1.64-0.383
				C221.293,392.498,221.651,392.476,221.943,392.476z"/>
			<path fill="#FFFFFF" d="M216.276,394.888l0.004-0.005c0.024-0.031,0.047-0.061,0.07-0.09l-0.195-0.141l-0.305-0.223
				c-0.018,0.023-0.497,0.465-0.876,1.28c-0.016-0.026-0.035-0.051-0.056-0.075c-0.114-0.124-0.272-0.188-0.474-0.184
				c-0.002,0-0.006,0-0.009,0c-0.125,0-0.21-0.041-0.267-0.092c0.056-0.071,0.089-0.16,0.089-0.258c0-0.23-0.188-0.419-0.418-0.419
				c-0.23,0-0.417,0.188-0.417,0.419s0.188,0.418,0.417,0.418c0.037,0,0.071-0.007,0.104-0.014c0.103,0.114,0.266,0.214,0.505,0.209
				c0.123-0.001,0.213,0.031,0.273,0.098c0.069,0.075,0.093,0.185,0.1,0.267c0,0.002,0,0.003-0.002,0.003
				c-0.272,0.744-0.194,1.669-0.194,1.669l0.661,0.026c0.014-0.337,0.062-0.927,0.232-1.394
				C215.848,395.478,216.26,394.911,216.276,394.888z"/>
			<path fill="#FFFFFF" d="M227.693,393.028c-0.23,0-0.418,0.187-0.418,0.418c0,0.036,0.005,0.07,0.015,0.104
				c-0.115,0.104-0.215,0.267-0.211,0.506c0.002,0.124-0.03,0.213-0.097,0.273c-0.053,0.047-0.119,0.072-0.185,0.088
				c-0.492-0.689-1.098-1.109-1.098-1.109l-0.474,0.508c0.358,0.326,0.725,0.734,1.08,1.244c0.246,0.353,0.499,0.807,0.71,1.259
				l0.64-0.304c0,0-0.292-0.722-0.703-1.369c0.071-0.025,0.144-0.064,0.207-0.12c0.125-0.113,0.187-0.273,0.183-0.475
				c-0.001-0.13,0.042-0.218,0.093-0.275c0.071,0.055,0.161,0.089,0.258,0.089c0.231,0,0.419-0.188,0.419-0.418
				C228.112,393.215,227.925,393.028,227.693,393.028z"/>
			<path fill="#FFFFFF" d="M226.032,398.779c-0.881,0.43-2.33,0.996-4.238,1.263c-0.749,0.104-1.474,0.142-2.142,0.142
				c-0.869,0-1.638-0.064-2.227-0.139c-0.672-0.085-1.198-0.188-1.52-0.262c0.077,0.245,0.17,0.488,0.283,0.725
				c0.002,0.006,0.005,0.013,0.008,0.017c0.014,0.027,0.027,0.057,0.041,0.084c0.014,0.027,0.027,0.054,0.041,0.079
				c0.004,0.008,0.007,0.015,0.011,0.021c0.189,0.356,0.417,0.685,0.675,0.969c0.9,0.984,1.817,1.14,1.826,1.141l0.014,0.002
				l0.014,0.005c0.008,0.003,0.821,0.266,2.057,0.266c1.215,0,2.409-0.245,3.546-0.729c0.842-0.431,1.639-1.085,2.033-1.669
				c0.306-0.451,0.525-0.933,0.656-1.434c0.069-0.266,0.125-0.691,0.092-1.141C226.955,398.284,226.563,398.521,226.032,398.779z"/>
			<path fill="#FFFFFF" d="M216.559,395.096c-0.025,0.038-0.408,0.578-0.709,1.408c-0.226,0.622-0.216,1.527-0.216,1.538v0.002
				c0,0.212,0.012,0.423,0.035,0.632c0,0.004,0,0.008,0.001,0.011c0.002,0.026,0.007,0.052,0.009,0.079
				c0.019,0.145,0.043,0.291,0.074,0.438c0.438,0.111,3.049,0.721,5.968,0.314c1.829-0.255,3.219-0.796,4.062-1.204
				c0.701-0.341,1.151-0.648,1.325-0.774c-0.173-0.643-0.651-1.65-1.089-2.279c-1.254-1.791-2.604-2.25-3.299-2.364
				c-0.265-0.043-0.477-0.068-0.777-0.068c-0.279,0-0.626,0.022-1.089,0.071c-0.465,0.048-0.982,0.17-1.583,0.372
				c-0.842,0.282-1.604,0.725-2.204,1.28l-0.021,0.019C216.958,394.652,216.772,394.824,216.559,395.096z M224.228,394.68
				c0.601,0,1.09,0.488,1.09,1.089c0,0.602-0.489,1.091-1.09,1.091s-1.089-0.489-1.089-1.091
				C223.139,395.168,223.627,394.68,224.228,394.68z M219.077,394.636c0.973,0,1.761,0.789,1.761,1.761
				c0,0.973-0.788,1.76-1.761,1.76c-0.972,0-1.76-0.787-1.76-1.76C217.317,395.425,218.105,394.636,219.077,394.636z"/>
		</g>
	</g>
</g>
</svg>
